# File created by Blade
# Date/Time:  Tue Sep 30 19:10:51 2014
#---------------------------------------------------------
:version 1.10
:name HOM
:units
  mass 1.0
  length 1.000000
  angle deg
:documentation
     Acclaim Skeleton File
:root
   axis xyz
   order TX TY TZ RX RY RZ
   position 0.000000 0.000000 0.000000
   orientation 0 0 0
:bonedata
   begin
      id 1
      name Spine_dum
      direction 0.000000 1.000000 0.000000
      length 7.508948
      axis 0.0 0.0 0.0 xyz
   end
   begin
      id 2
      name LeftUpLeg_dum
      direction 1.000000 0.000000 0.000000
      length 3.000560
      axis 0.0 0.0 0.0 xyz
   end
   begin
      id 3
      name RightUpLeg_dum
      direction -1.000000 0.000000 0.000000
      length 3.000560
      axis 0.0 0.0 0.0 xyz
   end
   begin
      id 4
      name Spine
      direction 0.000000 1.000000 0.000000
      length 0.000000
      axis 0.0 0.0 0.0 xyz
      dof rx ry rz
   end
   begin
      id 5
      name Spine_dum1
      direction 0.000000 1.000000 0.000000
      length 13.861154
      axis 0.0 0.0 0.0 xyz
   end
   begin
      id 6
      name Spine_dum2
      direction 0.000000 1.000000 0.000000
      length 8.204781
      axis 0.0 0.0 0.0 xyz
   end
   begin
      id 7
      name Spine_dum3
      direction 0.000000 1.000000 0.000000
      length 8.204781
      axis 0.0 0.0 0.0 xyz
   end
   begin
      id 8
      name Head
      direction 0.000000 1.000000 0.000000
      length 4.527550
      axis 0.0 0.0 0.0 xyz
      dof rx ry rz
   end
   begin
      id 9
      name LeftShoulder
      direction 1.000000 0.000000 0.000000
      length 6.635956
      axis 0.0 0.0 -90.0 xyz
      dof rx ry rz
   end
   begin
      id 10
      name LeftArm
      direction 1.000000 0.000000 0.000000
      length 10.274218
      axis 0.0 0.0 -90.0 xyz
      dof rx ry rz
   end
   begin
      id 11
      name LeftForeArm
      direction 1.000000 0.000000 0.000000
      length 8.522147
      axis 0.0 0.0 -90.0 xyz
      dof ry rz rx
   end
   begin
      id 12
      name LeftHand
      direction 0.000000 0.000000 0.000000
      length 0.000000
      axis 0.0 0.0 -90.0 xyz
      dof rx ry rz
   end
   begin
      id 13
      name LeftHand_dum1
      direction 0.000000 0.000000 0.000000
      length 0.000000
      axis 0.0 0.0 -90.0 xyz
   end
   begin
      id 14
      name LeftHand_dum2
      direction 1.000000 0.000000 0.000000
      length 3.937000
      axis 0.0 0.0 -90.0 xyz
   end
   begin
      id 15
      name LeftHandThumb1
      direction 0.000000 0.000000 1.000000
      length 3.937000
      axis 0.0 0.0 -90.0 xyz
      dof rx rz ry
   end
   begin
      id 16
      name RightShoulder
      direction -1.000000 0.000000 0.000000
      length 6.635956
      axis 0.0 0.0 90.0 xyz
      dof rx ry rz
   end
   begin
      id 17
      name RightArm
      direction -1.000000 0.000000 0.000000
      length 10.274218
      axis 0.0 0.0 90.0 xyz
      dof rx ry rz
   end
   begin
      id 18
      name RightForeArm
      direction -1.000000 0.000000 0.000000
      length 8.522147
      axis 0.0 0.0 90.0 xyz
      dof ry rz rx
   end
   begin
      id 19
      name RightHand
      direction 0.000000 0.000000 0.000000
      length 0.000000
      axis 0.0 0.0 90.0 xyz
      dof rx ry rz
   end
   begin
      id 20
      name RightHand_dum1
      direction 0.000000 0.000000 0.000000
      length 0.000000
      axis 0.0 0.0 90.0 xyz
   end
   begin
      id 21
      name RightHand_dum2
      direction -1.000000 0.000000 0.000000
      length 3.937000
      axis 0.0 0.0 90.0 xyz
   end
   begin
      id 22
      name RightHandThumb1
      direction 0.000000 0.000000 1.000000
      length 3.937000
      axis 0.0 0.0 90.0 xyz
      dof rx rz ry
   end
   begin
      id 23
      name LeftUpLeg
      direction 0.000000 -1.000000 0.000000
      length 16.490845
      axis 0.0 0.0 0.0 xyz
      dof rx ry rz
   end
   begin
      id 24
      name LeftLeg
      direction 0.000000 -1.000000 0.000000
      length 14.556576
      axis 0.0 0.0 0.0 xyz
      dof rx ry rz
   end
   begin
      id 25
      name LeftFoot
      direction 0.000000 -0.258819 0.965926
      length 4.831116
      axis 15.0 0.0 0.0 xyz
      dof rx ry rz
   end
   begin
      id 26
      name LeftToeBase
      direction 0.000000 0.000000 1.000000
      length 2.952750
      axis 0.0 0.0 0.0 xyz
      dof rx ry rz
   end
   begin
      id 27
      name RightUpLeg
      direction 0.000000 -1.000000 0.000000
      length 16.490845
      axis 0.0 0.0 0.0 xyz
      dof rx ry rz
   end
   begin
      id 28
      name RightLeg
      direction 0.000000 -1.000000 0.000000
      length 14.556576
      axis 0.0 0.0 0.0 xyz
      dof rx ry rz
   end
   begin
      id 29
      name RightFoot
      direction 0.000000 -0.258819 0.965926
      length 4.831116
      axis 15.0 0.0 0.0 xyz
      dof rx ry rz
   end
   begin
      id 30
      name RightToeBase
      direction 0.000000 0.000000 1.000000
      length 2.952750
      axis 0.0 0.0 0.0 xyz
      dof rx ry rz
   end
:hierarchy
   begin
      root Spine_dum LeftUpLeg_dum RightUpLeg_dum
      Spine_dum Spine
      LeftUpLeg_dum LeftUpLeg
      RightUpLeg_dum RightUpLeg
      Spine Spine_dum1 Spine_dum2 Spine_dum3
      Spine_dum1 Head
      Spine_dum2 LeftShoulder
      Spine_dum3 RightShoulder
      LeftShoulder LeftArm
      LeftArm LeftForeArm
      LeftForeArm LeftHand
      LeftHand LeftHand_dum1 LeftHand_dum2
      LeftHand_dum1 LeftHandThumb1
      RightShoulder RightArm
      RightArm RightForeArm
      RightForeArm RightHand
      RightHand RightHand_dum1 RightHand_dum2
      RightHand_dum1 RightHandThumb1
      LeftUpLeg LeftLeg
      LeftLeg LeftFoot
      LeftFoot LeftToeBase
      RightUpLeg RightLeg
      RightLeg RightFoot
      RightFoot RightToeBase
   end

# File created by Blade
# Date/Time:  Wed Sep 24 19:25:39 2014
# Frame Rate: 120.000 fps
#------------------------------------------------------
:FULLY-SPECIFIED
:DEGREES
266
root -16.080754 32.175648 -1.680630 17.874486 -4.876309 1.061538
Spine -16.855436 8.813098 4.046973
Head 5.958017 4.176766 0.819201
LeftShoulder -13.822835 24.858928 6.074191
LeftArm 23.976500 33.142302 -71.706151
LeftForeArm 2.830526 -0.000000 28.542435
LeftHand -25.579040 -0.000000 -1.323288
LeftHandThumb1 -26.253704 0.000000 33.147579
RightShoulder -18.838427 4.732795 -21.421950
RightArm -18.623350 -22.565990 86.453248
RightForeArm -16.457524 -0.000000 67.829991
RightHand 0.741925 -0.000000 -36.065144
RightHandThumb1 -24.326973 -0.000000 -32.862282
LeftUpLeg -8.736445 21.911081 0.530996
LeftLeg 116.282305 -0.000000 -0.000000
LeftFoot 36.170188 15.334197 -16.855527
LeftToeBase 18.599636 -0.000000 -0.000000
RightUpLeg -18.615935 3.902959 5.716716
RightLeg 19.782720 -0.000000 -0.000000
RightFoot -19.215613 -12.156443 -8.675243
RightToeBase -0.753529 -0.000000 0.000000
267
root -16.080610 32.177271 -1.677960 17.863486 -4.889302 1.083988
Spine -16.810895 8.821592 4.040061
Head 5.933331 4.167885 0.837188
LeftShoulder -13.805993 24.856601 6.113955
LeftArm 23.999442 33.177787 -71.732000
LeftForeArm 2.964070 0.000000 28.563793
LeftHand -25.496352 0.000000 -1.780110
LeftHandThumb1 -26.253704 0.000000 33.147579
RightShoulder -18.838350 4.727537 -21.418013
RightArm -18.629353 -22.540615 86.439416
RightForeArm -16.446125 -0.000000 67.889546
RightHand 0.699996 0.000000 -36.041166
RightHandThumb1 -24.326973 -0.000000 -32.862282
LeftUpLeg -8.750858 22.001919 0.521158
LeftLeg 116.290439 -0.000000 -0.000000
LeftFoot 36.175819 15.355522 -16.847144
LeftToeBase 18.563090 -0.000000 -0.000000
RightUpLeg -18.628762 3.887975 5.703959
RightLeg 19.826058 -0.000000 -0.000000
RightFoot -19.225002 -12.113370 -8.632522
RightToeBase -0.739601 -0.000000 0.000000
268
root -16.079967 32.178708 -1.674133 17.854037 -4.883680 1.109201
Spine -16.777678 8.812274 4.041483
Head 5.921254 4.167489 0.867283
LeftShoulder -13.779710 24.838109 6.147521
LeftArm 23.947742 33.191525 -71.789188
LeftForeArm 3.228076 -0.000000 28.638669
LeftHand -25.552911 -0.000000 -3.118548
LeftHandThumb1 -26.253704 0.000000 33.147579
RightShoulder -18.864485 4.683180 -21.423654
RightArm -18.585985 -22.537276 86.421429
RightForeArm -16.436241 -0.000000 67.936603
RightHand 0.676273 -0.000000 -35.930901
RightHandThumb1 -24.326973 -0.000000 -32.862282
LeftUpLeg -8.758059 22.075235 0.519575
LeftLeg 116.299150 -0.000000 -0.000000
LeftFoot 36.204635 15.310638 -16.800968
LeftToeBase 18.584363 -0.000000 -0.000000
RightUpLeg -18.620033 3.884923 5.679855
RightLeg 19.840137 -0.000000 -0.000000
RightFoot -19.190552 -12.195422 -8.717536
RightToeBase -0.776565 -0.000000 0.000000
269
root -16.080874 32.180515 -1.673495 17.851657 -4.899628 1.138013
Spine -16.745203 8.825440 4.014309
Head 5.909362 4.147420 0.899656
LeftShoulder -13.747998 24.845454 6.179021
LeftArm 23.931233 33.162412 -71.825911
LeftForeArm 3.317450 -0.000000 28.725999
LeftHand -25.493402 -0.000000 -3.270863
LeftHandThumb1 -26.253704 0.000000 33.147579
RightShoulder -18.877960 4.700591 -21.415566
RightArm -18.622451 -22.514492 86.420861
RightForeArm -16.423259 -0.000000 68.006477
RightHand 0.664892 -0.000000 -35.865119
RightHandThumb1 -24.326973 -0.000000 -32.862282
LeftUpLeg -8.774763 22.167222 0.511072
LeftLeg 116.330594 -0.000000 -0.000000
LeftFoot 36.217374 15.301916 -16.816071
LeftToeBase 18.644060 -0.000000 -0.000000
RightUpLeg -18.623931 3.928891 5.646262
RightLeg 19.844660 -0.000000 -0.000000
RightFoot -19.161012 -12.250054 -8.724399
RightToeBase -0.835023 -0.000000 0.000000
270
root -16.081819 32.181470 -1.669965 17.846986 -4.878834 1.163611
Spine -16.726532 8.800134 4.006360
Head 5.910176 4.114558 0.928412
LeftShoulder -13.738494 24.861735 6.192389
LeftArm 23.917240 33.150561 -71.848545
LeftForeArm 3.215918 -0.000000 28.829983
LeftHand -25.499089 -0.000000 -2.461879
LeftHandThumb1 -26.253704 0.000000 33.147579
RightShoulder -18.901730 4.691756 -21.411671
RightArm -18.630180 -22.515649 86.404825
RightForeArm -16.408429 0.000000 68.061144
RightHand 0.680919 -0.000000 -35.751738
RightHandThumb1 -24.326973 -0.000000 -32.862282
LeftUpLeg -8.771803 22.235551 0.524541
LeftLeg 116.366339 -0.000000 -0.000000
LeftFoot 36.243932 15.238532 -16.805773
LeftToeBase 18.569722 -0.000000 -0.000000
RightUpLeg -18.609225 3.911229 5.633942
RightLeg 19.828681 -0.000000 -0.000000
RightFoot -19.137992 -12.300302 -8.773261
RightToeBase -0.835531 -0.000000 0.000000
271
root -16.082668 32.182985 -1.668406 17.857798 -4.858121 1.196778
Spine -16.732818 8.766736 3.985707
Head 5.936052 4.091266 0.977221
LeftShoulder -13.724008 24.877571 6.231804
LeftArm 23.998275 33.287639 -71.756520
LeftForeArm 3.012725 -0.000000 28.845931
LeftHand -25.475207 0.000000 -2.246206
LeftHandThumb1 -26.253704 0.000000 33.147579
RightShoulder -18.924929 4.637619 -21.404300
RightArm -18.587391 -22.522585 86.397626
RightForeArm -16.383746 0.000000 68.093529
RightHand 0.675354 -0.000000 -35.682750
RightHandThumb1 -24.326973 -0.000000 -32.862282
LeftUpLeg -8.790963 22.298991 0.525486
LeftLeg 116.412820 -0.000000 -0.000000
LeftFoot 36.291393 15.153312 -16.857948
LeftToeBase 18.555225 -0.000000 -0.000000
RightUpLeg -18.614679 3.917590 5.608060
RightLeg 19.815217 -0.000000 -0.000000
RightFoot -19.117781 -12.360528 -8.820180
RightToeBase -0.840806 -0.000000 0.000000
272
root -16.083995 32.184038 -1.666120 17.862910 -4.836890 1.225697
Spine -16.731543 8.731523 3.974634
Head 5.952442 4.088873 1.019990
LeftShoulder -13.743989 24.925466 6.210516
LeftArm 23.918601 33.130402 -71.854249
LeftForeArm 3.256600 -0.000000 29.023856
LeftHand -25.520479 -0.000000 -2.369166
LeftHandThumb1 -26.253704 0.000000 33.147579
RightShoulder -18.916881 4.660211 -21.415788
RightArm -18.651258 -22.495678 86.420841
RightForeArm -16.396376 0.000000 68.137260
RightHand 0.671681 -0.000000 -35.646112
RightHandThumb1 -24.326973 -0.000000 -32.862282
LeftUpLeg -8.792697 22.422618 0.536160
LeftLeg 116.476659 -0.000000 -0.000000
LeftFoot 36.379650 15.039567 -16.626981
LeftToeBase 18.190469 -0.000000 -0.000000
RightUpLeg -18.611211 3.904600 5.590744
RightLeg 19.796585 -0.000000 -0.000000
RightFoot -19.082309 -12.412398 -8.878822
RightToeBase -0.906263 -0.000000 0.000000
273
root -16.084764 32.185700 -1.666150 17.881055 -4.810192 1.265329
Spine -16.750846 8.700151 3.937591
Head 5.972478 4.040036 1.053288
LeftShoulder -13.711006 24.924172 6.261173
LeftArm 23.943844 33.223432 -71.810766
LeftForeArm 3.281275 -0.000000 29.054810
LeftHand -25.562342 -0.000000 -3.111726
LeftHandThumb1 -26.253704 0.000000 33.147579
RightShoulder -18.946553 4.622350 -21.412510
RightArm -18.634581 -22.500970 86.433441
RightForeArm -16.360969 -0.000000 68.146832
RightHand 0.689286 -0.000000 -35.655414
RightHandThumb1 -24.326973 -0.000000 -32.862282
LeftUpLeg -8.818024 22.511956 0.535978
LeftLeg 116.556268 -0.000000 -0.000000
LeftFoot 36.350802 15.027922 -16.629678
LeftToeBase 18.359372 -0.000000 -0.000000
RightUpLeg -18.619240 3.909398 5.555235
RightLeg 19.770848 -0.000000 -0.000000
RightFoot -19.079644 -12.440240 -8.872340
RightToeBase -0.909704 -0.000000 0.000000
274
root -16.085950 32.187566 -1.663119 17.888034 -4.760851 1.295920
Spine -16.768841 8.642997 3.929864
Head 6.004329 3.989905 1.067161
LeftShoulder -13.714546 24.961767 6.261425
LeftArm 23.966041 33.231476 -71.785711
LeftForeArm 3.123988 0.000000 29.132287
LeftHand -25.480923 0.000000 -2.314056
LeftHandThumb1 -26.253704 0.000000 33.147579
RightShoulder -18.949961 4.588170 -21.416394
RightArm -18.641221 -22.476882 86.451154
RightForeArm -16.350153 0.000000 68.167584
RightHand 0.662095 0.000000 -35.669016
RightHandThumb1 -24.326973 -0.000000 -32.862282
LeftUpLeg -8.805770 22.586685 0.574114
LeftLeg 116.629278 -0.000000 -0.000000
LeftFoot 36.336557 15.084538 -16.702547
LeftToeBase 18.499737 -0.000000 -0.000000
RightUpLeg -18.605300 3.885237 5.539174
RightLeg 19.728632 -0.000000 -0.000000
RightFoot -19.048014 -12.478488 -8.897519
RightToeBase -0.954847 -0.000000 0.000000
275
root -16.086955 32.189424 -1.660727 17.900452 -4.719338 1.328821
Spine -16.797110 8.597068 3.917337
Head 6.039031 3.923398 1.059593
LeftShoulder -13.736245 25.011833 6.235765
LeftArm 23.884197 33.079726 -71.881358
LeftForeArm 3.469712 -0.000000 29.291963
LeftHand -25.553973 -0.000000 -3.050279
LeftHandThumb1 -26.253704 0.000000 33.147579
RightShoulder -18.944112 4.579990 -21.436597
RightArm -18.699465 -22.423830 86.492713
RightForeArm -16.333499 -0.000000 68.194214
RightHand 0.669377 0.000000 -35.664496
RightHandThumb1 -24.326973 -0.000000 -32.862282
LeftUpLeg -8.804326 22.659264 0.594365
LeftLeg 116.713429 -0.000000 -0.000000
LeftFoot 36.336279 15.112338 -16.767851
LeftToeBase 18.502264 -0.000000 -0.000000
RightUpLeg -18.597899 3.872429 5.518257
RightLeg 19.688938 -0.000000 -0.000000
RightFoot -19.029619 -12.544053 -8.936108
RightToeBase -0.923804 -0.000000 0.000000
